<?xml version="1.0" standalone="no"?>
<!DOCTYPE svg PUBLIC "-//W3C//DTD SVG 20010904//EN"
 "http://www.w3.org/TR/2001/REC-SVG-20010904/DTD/svg10.dtd">
<svg version="1.0" xmlns="http://www.w3.org/2000/svg"
 width="700.000000pt" height="700.000000pt" viewBox="0 0 700.000000 700.000000"
 preserveAspectRatio="xMidYMid meet">
<metadata>
Created by potrace 1.11, written by Peter Selinger 2001-2013
</metadata>
<g transform="translate(0.000000,700.000000) scale(0.100000,-0.100000)"
fill="#000000" stroke="none">
<path d="M3239 6996 c-2 -2 -38 -6 -79 -10 -360 -31 -741 -175 -1040 -394 -41
-31 -77 -58 -80 -61 -3 -3 -23 -19 -45 -35 -22 -17 -101 -91 -175 -166 -127
-127 -229 -251 -312 -380 -35 -53 -138 -239 -138 -247 0 -2 -11 -29 -25 -58
-38 -84 -106 -292 -120 -370 -22 -114 -36 -200 -44 -265 -10 -78 -9 -499 1
-515 3 -6 9 -41 13 -79 3 -38 11 -80 16 -95 6 -14 10 -28 10 -31 -3 -22 27
-143 65 -255 59 -178 163 -382 276 -540 39 -55 74 -102 77 -105 3 -3 38 -43
77 -90 199 -238 439 -423 729 -561 66 -31 157 -70 202 -85 46 -16 83 -32 83
-35 0 -3 -420 -426 -933 -940 -596 -596 -944 -951 -961 -982 -41 -69 -58 -132
-62 -220 -5 -136 37 -244 134 -343 91 -93 189 -134 322 -134 95 0 162 16 236
57 35 19 413 391 1272 1250 673 673 1227 1223 1230 1224 4 0 222 2 486 2 351
2 480 -1 483 -9 2 -7 5 -495 7 -1085 1 -850 4 -1081 15 -1109 46 -125 130
-228 224 -277 29 -15 54 -28 57 -28 3 -1 23 -7 45 -13 53 -16 188 -15 250 2
65 17 109 40 165 85 62 49 84 76 121 145 63 116 59 -38 59 2312 0 2355 4 2188
-58 2314 -47 97 -162 196 -263 229 -125 40 -269 26 -378 -37 -118 -68 -211
-208 -230 -342 -5 -36 -9 -332 -9 -658 0 -327 -2 -596 -5 -598 -7 -7 -1614 -6
-1667 1 -25 3 -65 10 -90 15 -25 5 -58 11 -75 14 -42 6 -169 49 -240 81 -251
113 -487 340 -622 600 -49 94 -107 262 -118 342 -3 25 -9 51 -12 56 -12 19
-10 305 3 387 66 428 340 794 728 975 142 67 277 103 443 120 26 3 521 5 1099
6 852 0 1063 3 1117 14 228 48 382 243 372 475 -7 191 -120 347 -306 423 l-54
22 -1136 2 c-625 2 -1138 1 -1140 -1z"/>
</g>
</svg>
