<?xml version="1.0" encoding="utf-8"?>
<!-- Generator: Adobe Illustrator 16.0.0, SVG Export Plug-In . SVG Version: 6.00 Build 0)  -->
<!DOCTYPE svg PUBLIC "-//W3C//DTD SVG 1.1//EN" "http://www.w3.org/Graphics/SVG/1.1/DTD/svg11.dtd">
<svg version="1.1" xmlns="http://www.w3.org/2000/svg" xmlns:xlink="http://www.w3.org/1999/xlink" x="0px" y="0px" width="500px"
	 height="500px" viewBox="0 0 500 500" enable-background="new 0 0 500 500" xml:space="preserve">
<g id="Layer_5">
	<linearGradient id="SVGID_1_" gradientUnits="userSpaceOnUse" x1="62.48" y1="488.2725" x2="198.873" y2="358.8783">
		<stop  offset="0" style="stop-color:#FFFFFF;stop-opacity:0.3"/>
		<stop  offset="1" style="stop-color:#FFFFFF;stop-opacity:0.8"/>
	</linearGradient>
	<path fill="url(#SVGID_1_)" d="M289,313L111.817,490.522c-6.505,6.51-14.409,9.914-23.71,9.914c-9.065,0-16.851-3.284-23.36-9.794
		c-6.505-6.504-9.763-14.427-9.763-23.727c0-9.065,3.258-16.749,9.763-23.26L195.5,313H289z"/>
</g>
<g id="Layer_7">
	<path fill="#FFFFFF" d="M386.5,134c-19.088,0-33.5,15.476-33.5,34.563V253h-97.272h-12.552c-7.9,0-15.691-1.016-23.361-2.879
		L219.5,250c-22.95-5.792-41.829-20.418-54.421-39.702l-0.007-0.004c-0.082-0.125-0.156-0.258-0.237-0.384
		c-0.481-0.745-0.954-1.499-1.415-2.258c-0.228-0.375-0.445-0.753-0.667-1.13c-0.215-0.365-0.429-0.732-0.639-1.101
		c-5.987-10.459-9.738-21.544-11.252-33.252c-0.091-0.667-0.174-1.336-0.25-2.008c-0.001-0.017-0.004-0.034-0.006-0.051
		c-0.396-3.482-0.606-7.021-0.606-10.61c0-51.362,41.638-92.5,93-92.5c4.208,0,65.029,0,65.029,0H386.5
		c18.502,0,33.5-14.999,33.5-33.5S405.002,0,386.5,0h-24.927H291.5h-48.324c-43.933,0-81.59,15.881-112.971,47.262
		c-31.146,31.151-46.723,68.784-46.723,112.717c0,40.398,13.182,75.428,39.518,105.021l0,0
		c16.886,20.103,36.68,32.766,54.316,40.727c5.112,2.346,10.341,4.391,15.683,6.147C211.583,318.103,225,319,225,319h62h66v147.907
		c0,9.3,3.088,17.205,9.594,23.71c6.51,6.51,14.329,9.764,23.624,9.764c9.299,0,17.359-3.254,23.864-9.764
		c6.511-6.505,9.918-14.41,9.918-23.71V168.563C420,149.476,405.588,134,386.5,134z"/>
</g>
</svg>
