<?xml version="1.0" encoding="utf-8"?>
<!-- Generator: Adobe Illustrator 16.0.0, SVG Export Plug-In . SVG Version: 6.00 Build 0)  -->
<!DOCTYPE svg PUBLIC "-//W3C//DTD SVG 1.1//EN" "http://www.w3.org/Graphics/SVG/1.1/DTD/svg11.dtd">
<svg version="1.1" id="Layer_1" xmlns="http://www.w3.org/2000/svg" xmlns:xlink="http://www.w3.org/1999/xlink" x="0px" y="0px"
	 width="350px" height="67px" viewBox="0 0 350 67" enable-background="new 0 0 350 67" xml:space="preserve">
<g>
	<path fill="#999999" stroke="#999999" stroke-miterlimit="10" d="M15.38,18.343c-4.969,0-8.773,2.448-9.773,5.761v-3.169
		c0-1.296-1.204-2.304-2.5-2.304c-1.296,0-2.5,1.008-2.5,2.304v29.234c0,1.297,1.204,2.305,2.5,2.305c1.297,0,2.5-1.008,2.5-2.305
		V34.04c0-6.625,3.149-11.233,9.773-11.233c1.225,0,2.232-1.008,2.232-2.231C17.613,19.351,16.605,18.343,15.38,18.343z"/>
	<path fill="#999999" stroke="#999999" stroke-miterlimit="10" d="M37.271,18.198c-4.681,0-8.664,2.305-9.664,5.041V2.934
		c0-1.297-1.204-2.305-2.5-2.305s-2.5,1.008-2.5,2.305v47.235c0,1.297,1.205,2.305,2.5,2.305s2.5-1.008,2.5-2.305V32.384
		c0-5.761,2.339-10.081,9.468-10.081c6.984,0,8.532,3.889,8.532,9.577v18.289c0,1.297,1.205,2.305,2.5,2.305s2.5-1.008,2.5-2.305
		V30.943C50.607,24.823,48.36,18.198,37.271,18.198z"/>
	<path fill="#999999" stroke="#999999" stroke-miterlimit="10" d="M81.529,18.631c-1.296,0-1.872,0.792-2.16,1.512L69.216,44.984
		L59.063,20.143c-0.288-0.72-0.864-1.512-2.16-1.512s-2.304,1.008-2.304,2.304c0,0.504,0.144,0.792,0.216,1.009l12.024,28.586
		c-2.952,7.272-4.608,11.521-10.873,11.521c-1.224,0-2.16,0.936-2.16,2.16c0,1.224,0.937,2.16,2.16,2.16
		c6.841,0,10.514-3.601,13.466-10.657l14.185-33.771c0.072-0.217,0.217-0.505,0.217-1.009
		C83.833,19.639,82.825,18.631,81.529,18.631z"/>
	<path fill="#999999" stroke="#999999" stroke-miterlimit="10" d="M93.478,26.983c0-3.313,3.169-4.32,6.409-4.32
		c3.744,0,5.904,1.152,7.849,3.024c0.576,0.576,1.152,0.647,1.512,0.647c1.152,0,2.089-0.936,2.089-2.088
		c0-0.648-0.288-1.08-0.505-1.368c-2.231-2.952-6.048-4.608-10.944-4.608c-6.121,0-11.018,2.736-11.018,8.713
		c0,11.809,18.938,8.856,18.938,16.273c0,3.744-3.528,5.112-7.633,5.112c-4.032,0-6.913-1.296-9.146-3.528
		c-0.575-0.576-1.151-0.72-1.584-0.72c-1.151,0-2.088,0.936-2.088,2.088c0,0.504,0.144,0.864,0.504,1.368
		c1.872,2.376,6.408,5.185,12.313,5.185c6.84,0,12.241-2.952,12.241-9.505C112.417,31.735,93.478,34.544,93.478,26.983z"/>
	<path fill="#999999" stroke="#999999" stroke-miterlimit="10" d="M150.138,18.198c-9.36,0-14.94,5.545-14.94,17.354
		c0,11.81,5.437,17.282,14.797,17.282c4.681,0,8.612-2.16,9.612-4.393v4.104c0,6.552-4.084,9.505-9.988,9.505
		c-4.536,0-6.795-1.729-8.452-3.385c-0.647-0.648-1.129-0.792-1.704-0.792c-1.225,0-2.221,1.008-2.221,2.232
		c0,0.576,0.222,1.008,0.438,1.296c2.376,2.88,6.479,4.969,12.096,4.969c8.064,0,14.832-4.033,14.832-13.825v-20.09
		C164.607,22.951,158.347,18.198,150.138,18.198z M159.607,42.824c0,0-2.859,5.833-9.629,5.833c-6.624,0-10.251-4.248-10.251-13.105
		c0-9.001,3.604-13.177,10.229-13.177c5.401,0,9.652,3.24,9.652,10.081V42.824z"/>
	<path fill="#999999" stroke="#999999" stroke-miterlimit="10" d="M187.599,18.343c-4.968,0-7.992,2.448-9.992,5.761v-3.169
		c0-1.296-1.204-2.304-2.5-2.304s-2.5,1.008-2.5,2.304v29.234c0,1.297,1.204,2.305,2.5,2.305s2.5-1.008,2.5-2.305V34.04
		c0-6.625,3.368-11.233,9.992-11.233c1.223,0,2.232-1.008,2.232-2.231C189.832,19.351,188.822,18.343,187.599,18.343z"/>
	<path fill="#999999" stroke="#999999" stroke-miterlimit="10" d="M207.166,18.198c-9.359,0-14.832,6.192-14.832,17.282
		c0,12.097,5.977,17.354,15.553,17.354c6.408,0,10.152-2.953,11.232-4.033c0.432-0.432,0.793-0.863,0.793-1.655
		c0-1.152-0.938-2.089-2.088-2.089c-0.576,0-0.865,0.145-1.297,0.433c-2.016,1.512-4.465,3.171-8.641,3.171
		c-6.77,0-10.873-4.66-10.873-11.66h21.025c2.881,0,2.881-2.596,2.881-4.684C220.919,27.419,218.687,18.198,207.166,18.198z
		 M197.013,33c0.432-7,3.889-10.44,10.152-10.44c7.418,0,9.217,5.44,9.217,10.44H197.013z"/>
	<path fill="#999999" stroke="#999999" stroke-miterlimit="10" d="M240.998,18.198c-9.361,0-15.009,5.545-15.009,17.354
		c0,11.81,5.54,17.282,14.901,17.282c4.68,0,7.717-2.16,9.717-4.393v4.104c0,6.552-4.227,9.505-10.131,9.505
		c-4.535,0-6.862-1.729-8.519-3.385c-0.648-0.648-1.165-0.792-1.741-0.792c-1.225,0-2.237,1.008-2.237,2.232
		c0,0.576,0.211,1.008,0.426,1.296c2.377,2.88,6.617,4.969,12.232,4.969c8.064,0,14.97-4.033,14.97-13.825v-20.09
		C255.607,22.951,249.205,18.198,240.998,18.198z M250.607,42.824c0,0-3.002,5.833-9.77,5.833c-6.625,0-10.319-4.248-10.319-13.105
		c0-9.001,3.706-13.177,10.331-13.177c5.4,0,9.758,3.24,9.758,10.081V42.824z"/>
	<path fill="#999999" stroke="#999999" stroke-miterlimit="10" d="M276.646,18.198c-9.289,0-15.121,5.473-15.121,17.282
		c0,11.809,5.832,17.354,15.121,17.354c9.359,0,15.121-5.545,15.121-17.354C291.767,23.671,286.005,18.198,276.646,18.198z
		 M276.646,48.657c-6.625,0-10.441-3.96-10.441-13.177c0-9.073,3.816-13.105,10.441-13.105c6.623,0,10.439,4.032,10.439,13.105
		C287.085,44.697,283.269,48.657,276.646,48.657z"/>
	<path fill="#999999" stroke="#999999" stroke-miterlimit="10" d="M313.599,18.343c-4.969,0-7.992,2.448-9.992,5.761v-3.169
		c0-1.296-1.205-2.304-2.502-2.304c-1.295,0-2.498,1.008-2.498,2.304v29.234c0,1.297,1.203,2.305,2.498,2.305
		c1.297,0,2.502-1.008,2.502-2.305V34.04c0-6.625,3.367-11.233,9.992-11.233c1.223,0,2.232-1.008,2.232-2.231
		C315.832,19.351,314.822,18.343,313.599,18.343z"/>
	<path fill="#999999" stroke="#999999" stroke-miterlimit="10" d="M347.132,18.631c-1.297,0-1.873,0.792-2.16,1.512L334.82,44.984
		l-10.154-24.842c-0.287-0.72-0.863-1.512-2.16-1.512c-1.295,0-2.303,1.008-2.303,2.304c0,0.504,0.143,0.792,0.215,1.009
		l12.025,28.586c-2.953,7.272-4.607,11.521-10.873,11.521c-1.225,0-2.16,0.936-2.16,2.16c0,1.224,0.936,2.16,2.16,2.16
		c6.84,0,10.514-3.601,13.465-10.657l14.186-33.771c0.072-0.217,0.217-0.505,0.217-1.009
		C349.437,19.639,348.429,18.631,347.132,18.631z"/>
</g>
</svg>
