<?xml version="1.0" encoding="utf-8"?>
<!-- Generator: Adobe Illustrator 16.0.0, SVG Export Plug-In . SVG Version: 6.00 Build 0)  -->
<!DOCTYPE svg PUBLIC "-//W3C//DTD SVG 1.1//EN" "http://www.w3.org/Graphics/SVG/1.1/DTD/svg11.dtd">
<svg version="1.1" xmlns="http://www.w3.org/2000/svg" xmlns:xlink="http://www.w3.org/1999/xlink" x="0px" y="0px" width="500px"
	 height="500px" viewBox="0 0 500 500" enable-background="new 0 0 500 500" xml:space="preserve">
<g id="Layer_1" display="none">
	<g display="inline">
		<path d="M376.43,203.571h66.428c4.285,0,7.143,2.857,7.143,5.714v285c0,2.856-2.857,5.715-7.143,5.715H361.43
			c-4.287,0-7.144-2.858-7.144-5.715V296.428h-35L193.572,497.142c-0.715,1.43-4.285,2.858-6.43,2.858H91.43
			c-5,0-7.857-4.287-5-8.572L215,285.714c-48.57-15-105-50-105-137.857C110,0,280,0,280,0h170l-59,92.857l-51,0h-60
			c-16.428,0-74.285,0-74.285,55c0,42.857,37.857,54.286,65,55"/>
	</g>
	<path display="inline" d="M354.286,350.357V152.5c0-2.856,2.856-5.715,7.144-5.715h81.428c4.285,0,7.143,2.858,7.143,5.715v285"/>
</g>
<g id="Layer_2" display="none">
	<path display="inline" d="M386.5,134c-19.088,0-33.5,15.476-33.5,34.563V253h-97.272h-12.552c-7.9,0-15.691-1.016-23.361-2.879
		L219.5,250c-22.95-5.792-41.829-20.418-54.421-39.702l-0.007-0.004c-0.082-0.125-0.156-0.258-0.237-0.384
		c-0.481-0.745-0.954-1.499-1.415-2.258c-0.228-0.375-0.445-0.753-0.667-1.13c-0.215-0.365-0.429-0.732-0.639-1.101
		c-5.987-10.459-9.738-21.544-11.252-33.252c-0.091-0.667-0.174-1.336-0.25-2.008c-0.001-0.017-0.004-0.034-0.006-0.051
		c-0.396-3.482-0.606-7.021-0.606-10.61c0-51.362,41.638-92.5,93-92.5c4.208,0,65.029,0,65.029,0H386.5
		c18.502,0,33.5-14.999,33.5-33.5S405.002,0,386.5,0h-24.927H291.5h-48.324c-43.933,0-81.59,15.881-112.971,47.262
		c-31.146,31.151-46.723,68.784-46.723,112.717s15.576,81.523,46.723,112.67c19.525,19.297,41.378,32.686,65.551,40.121
		L65.003,443.534c-6.505,6.511-9.763,14.302-9.763,23.367c0,9.3,3.258,17.208,9.763,23.713c6.51,6.51,14.295,9.765,23.361,9.765
		c9.3,0,17.205-3.462,23.71-9.972L283.272,319H353v147.907c0,9.3,3.088,17.205,9.594,23.71c6.51,6.51,14.329,9.764,23.624,9.764
		c9.299,0,17.359-3.254,23.864-9.764c6.511-6.505,9.918-14.41,9.918-23.71V168.563C420,149.476,405.588,134,386.5,134z"/>
</g>
<g id="Layer_3" display="none">
	<path display="inline" fill="#8D5CFF" d="M428,100.5c0,18.501-14.998,33.5-33.5,33.5h-13c-18.502,0-33.5-14.999-33.5-33.5l0,0
		c0-18.501,14.998-33.5,33.5-33.5h13C413.002,67,428,81.999,428,100.5L428,100.5z"/>
</g>
<g id="Layer_5">
	<path fill="#6B76B9" d="M289,313L111.817,490.522c-6.505,6.51-14.409,9.914-23.71,9.914c-9.065,0-16.851-3.284-23.36-9.794
		c-6.505-6.504-9.763-14.427-9.763-23.727c0-9.065,3.258-16.749,9.763-23.26L195.5,313H289z"/>
</g>
<g id="Layer_6">
	<linearGradient id="SVGID_1_" gradientUnits="userSpaceOnUse" x1="194.4194" y1="360.2334" x2="237.2104" y2="319.6382">
		<stop  offset="0" style="stop-color:#6F79BC"/>
		<stop  offset="0.8" style="stop-color:#4F5CAD"/>
	</linearGradient>
	<polygon fill="url(#SVGID_1_)" points="172.468,336.016 219.293,382.841 289,313 195.5,313 	"/>
</g>
<g id="Layer_7">
	<path fill="#303F9F" d="M386.5,134c-19.088,0-33.5,15.476-33.5,34.563V253h-97.272h-12.552c-7.9,0-15.691-1.016-23.361-2.879
		L219.5,250c-22.95-5.792-41.829-20.418-54.421-39.702l-0.007-0.004c-0.082-0.125-0.156-0.258-0.237-0.384
		c-0.481-0.745-0.954-1.499-1.415-2.258c-0.228-0.375-0.445-0.753-0.667-1.13c-0.215-0.365-0.429-0.732-0.639-1.101
		c-5.987-10.459-9.738-21.544-11.252-33.252c-0.091-0.667-0.174-1.336-0.25-2.008c-0.001-0.017-0.004-0.034-0.006-0.051
		c-0.396-3.482-0.606-7.021-0.606-10.61c0-51.362,41.638-92.5,93-92.5c4.208,0,65.029,0,65.029,0H386.5
		c18.502,0,33.5-14.999,33.5-33.5S405.002,0,386.5,0h-24.927H291.5h-48.324c-43.933,0-81.59,15.881-112.971,47.262
		c-31.146,31.151-46.723,68.784-46.723,112.717c0,40.398,13.182,75.428,39.518,105.021l0,0
		c16.886,20.103,36.68,32.766,54.316,40.727c5.112,2.346,10.341,4.391,15.683,6.147C211.583,318.103,225,319,225,319h62h66v147.907
		c0,9.3,3.088,17.205,9.594,23.71c6.51,6.51,14.329,9.764,23.624,9.764c9.299,0,17.359-3.254,23.864-9.764
		c6.511-6.505,9.918-14.41,9.918-23.71V168.563C420,149.476,405.588,134,386.5,134z"/>
</g>
</svg>
